<svg xmlns="http://www.w3.org/2000/svg" viewBox="0 0 128 128"><defs><linearGradient id="bg" x1="0%" x2="100%" y1="0%" y2="100%"><stop offset="0%" style="stop-color:#1a1a2e"/><stop offset="100%" style="stop-color:#16213e"/></linearGradient><linearGradient id="orbit" x1="0%" x2="100%" y1="0%" y2="100%"><stop offset="0%" style="stop-color:#76b900"/><stop offset="100%" style="stop-color:#00d4ff"/></linearGradient></defs><rect width="128" height="128" fill="url(#bg)" rx="16"/><ellipse cx="64" cy="64" fill="none" stroke="url(#orbit)" stroke-width="2" opacity=".6" rx="45" ry="20" transform="rotate(-20 64 64)"/><ellipse cx="64" cy="64" fill="none" stroke="url(#orbit)" stroke-width="2" opacity=".6" rx="45" ry="20" transform="rotate(40 64 64)"/><ellipse cx="64" cy="64" fill="none" stroke="url(#orbit)" stroke-width="2" opacity=".6" rx="45" ry="20" transform="rotate(100 64 64)"/><rect width="40" height="40" x="44" y="44" fill="#76b900" rx="4"/><rect width="28" height="28" x="50" y="50" fill="#1a1a2e" rx="2"/><g fill="#76b900" opacity=".8"><rect width="5" height="5" x="53" y="53"/><rect width="5" height="5" x="61" y="53"/><rect width="5" height="5" x="69" y="53"/><rect width="5" height="5" x="53" y="61"/><rect width="5" height="5" x="61" y="61"/><rect width="5" height="5" x="69" y="61"/><rect width="5" height="5" x="53" y="69"/><rect width="5" height="5" x="61" y="69"/><rect width="5" height="5" x="69" y="69"/></g><circle cx="109" cy="64" r="5" fill="#00d4ff"/><circle cx="38" cy="30" r="4" fill="#76b900"/><circle cx="90" cy="98" r="4" fill="#ff6b6b"/></svg>